<svg id="Layer_1" data-name="Layer 1" xmlns="http://www.w3.org/2000/svg" width="22.58mm" height="22.58mm" viewBox="0 0 64 64"><defs><style>.cls-1{fill:#001689;}</style></defs><title>app-support</title><g id="APP_SUPPORT" data-name="APP SUPPORT"><path class="cls-1" d="M32,53A21,21,0,1,1,53,32,21,21,0,0,1,32,53Zm0-40A19,19,0,1,0,51,32,19,19,0,0,0,32,13Z"/><rect class="cls-1" x="31" y="31" width="2" height="2"/><path class="cls-1" d="M32,53c-6.17,0-11-9.22-11-21s4.83-21,11-21,11,9.23,11,21S38.17,53,32,53Zm0-40c-4.88,0-9,8.7-9,19s4.12,19,9,19,9-8.7,9-19S36.88,13,32,13Z"/><path class="cls-1" d="M32,23a36.23,36.23,0,0,1-15.44-3.1l0.87-1.8A34.2,34.2,0,0,0,32,21a34.2,34.2,0,0,0,14.56-2.9l0.88,1.8A36.23,36.23,0,0,1,32,23Z"/><path class="cls-1" d="M17.44,45.9l-0.87-1.8A36.23,36.23,0,0,1,32,41a36.22,36.22,0,0,1,15.44,3.1l-0.87,1.8A34.21,34.21,0,0,0,32,43,34.21,34.21,0,0,0,17.44,45.9Z"/><rect class="cls-1" x="12" y="31" width="17" height="2"/><rect class="cls-1" x="35" y="31" width="17" height="2"/><path class="cls-1" d="M32,64a32.42,32.42,0,0,1-4.2-.28l-1-.14,0.19-1A3,3,0,0,0,27,62a3,3,0,0,0-5.82-1l-0.35,1-1-.4a32,32,0,0,1-7.4-4.28l-0.82-.63,0.66-.8a3,3,0,0,0-4.2-4.2l-0.8.66-0.63-.82a32,32,0,0,1-4.28-7.4l-0.4-1,1-.35A3,3,0,0,0,2,37a3,3,0,0,0-.54.06l-1,.19-0.14-1a31.26,31.26,0,0,1,0-8.41l0.14-1,1,0.19A3,3,0,0,0,2,27a3,3,0,0,0,1-5.82l-1-.35,0.4-1a31.93,31.93,0,0,1,4.28-7.4l0.63-.82L8.1,12.3A3,3,0,0,0,10,13a3,3,0,0,0,3-3,3,3,0,0,0-.7-1.9l-0.66-.8,0.82-.63a32,32,0,0,1,7.4-4.28l1-.4,0.35,1A3,3,0,0,0,27,2a3,3,0,0,0-.06-0.54l-0.19-1,1-.14a31.39,31.39,0,0,1,8.41,0l1,0.14-0.19,1A3,3,0,0,0,37,2a3,3,0,0,0,5.82,1l0.35-1,1,0.4a31.93,31.93,0,0,1,7.4,4.28L52.36,7.3l-0.66.8A3,3,0,0,0,51,10a3,3,0,0,0,3,3,3,3,0,0,0,1.9-.7l0.8-.66,0.63,0.82a32,32,0,0,1,4.28,7.4l0.4,1-1,.35A3,3,0,0,0,62,27a3,3,0,0,0,.54-0.06l1-.19,0.14,1a31.26,31.26,0,0,1,0,8.41l-0.14,1-1-.19A3,3,0,0,0,62,37a3,3,0,0,0-1,5.82l1,0.35-0.4,1a32,32,0,0,1-4.28,7.4l-0.63.82-0.8-.66A3,3,0,0,0,54,51a3,3,0,0,0-3,3,3,3,0,0,0,.7,1.9l0.66,0.8-0.82.63a32,32,0,0,1-7.4,4.28l-1,.4-0.35-1A3,3,0,0,0,37,62a3,3,0,0,0,.06.54l0.19,1-1,.14A32.42,32.42,0,0,1,32,64Zm-3-2.16a29,29,0,0,0,6,0,5,5,0,0,1,9.24-2.46,30,30,0,0,0,5.33-3.08A4.87,4.87,0,0,1,49,54a5,5,0,0,1,5-5,4.87,4.87,0,0,1,2.31.58,29.94,29.94,0,0,0,3.08-5.33A5,5,0,0,1,61.84,35a29,29,0,0,0,0-6,5,5,0,0,1-2.46-9.24,29.91,29.91,0,0,0-3.08-5.33A4.87,4.87,0,0,1,54,15a5,5,0,0,1-5-5,4.87,4.87,0,0,1,.58-2.31,30,30,0,0,0-5.33-3.08A5,5,0,0,1,35,2.16a29,29,0,0,0-6,0,5,5,0,0,1-9.24,2.45,29.93,29.93,0,0,0-5.33,3.08A4.87,4.87,0,0,1,15,10a5,5,0,0,1-5,5,4.87,4.87,0,0,1-2.31-.58,30,30,0,0,0-3.08,5.33A5,5,0,0,1,2.16,29a28.78,28.78,0,0,0,0,6,5,5,0,0,1,2.45,9.24,30,30,0,0,0,3.08,5.33A4.87,4.87,0,0,1,10,49a5,5,0,0,1,5,5,4.87,4.87,0,0,1-.58,2.31,30,30,0,0,0,5.33,3.08A5,5,0,0,1,29,61.84Z"/><rect class="cls-1" x="18" y="8" width="2" height="2"/><rect class="cls-1" x="18" y="53" width="2" height="2"/><rect class="cls-1" x="31" y="5" width="2" height="2"/><rect class="cls-1" x="31" y="57" width="2" height="2"/><rect class="cls-1" x="44" y="8" width="2" height="2"/><rect class="cls-1" x="44" y="53" width="2" height="2"/><rect class="cls-1" x="53" y="18" width="2" height="2"/><rect class="cls-1" x="53" y="44" width="2" height="2"/><rect class="cls-1" x="9" y="18" width="2" height="2"/><rect class="cls-1" x="9" y="44" width="2" height="2"/><rect class="cls-1" x="57" y="31" width="2" height="2"/><rect class="cls-1" x="5" y="31" width="2" height="2"/></g></svg>