<svg id="Layer_1" data-name="Layer 1" xmlns="http://www.w3.org/2000/svg" width="22.58mm" height="22.58mm" viewBox="0 0 64 64"><defs><style>.cls-1{fill:#001689;}</style></defs><title>business-intelligence</title><g id="BUS_INTEL" data-name="BUS INTEL"><rect class="cls-1" x="25" y="55" width="2" height="9"/><rect class="cls-1" x="35" y="55" width="2" height="9"/><path class="cls-1" d="M38,56H24a2,2,0,0,1-2-2V50h2v4H38V50h2v4A2,2,0,0,1,38,56Z"/><path class="cls-1" d="M31,52A26,26,0,1,1,57,26,26,26,0,0,1,31,52ZM31,2A24,24,0,1,0,55,26,24,24,0,0,0,31,2Z"/><path class="cls-1" d="M31,28c-3.42,0-6-3.23-6-7.5,0-3,.68-6.5,6-6.5s6,3.47,6,6.5C37,24.77,34.42,28,31,28Zm0-12c-3,0-4,1.09-4,4.5,0,2.67,1.4,5.5,4,5.5s4-2.83,4-5.5C35,17.09,34,16,31,16Z"/><path class="cls-1" d="M39,36H23c-1.63,0-3-1.83-3-4V29.42l7.5-4.29,1,1.74L22,30.58V32a2,2,0,0,0,1,2H39a2,2,0,0,0,1-2V30.58l-6.5-3.71,1-1.74L42,29.42V32C42,34.17,40.63,36,39,36Z"/><rect class="cls-1" x="30" y="58" width="2" height="6"/><path class="cls-1" d="M31,48A22,22,0,1,1,53,26,22,22,0,0,1,31,48ZM31,6A20,20,0,1,0,51,26,20,20,0,0,0,31,6Z"/><path class="cls-1" d="M16,26H14A17,17,0,0,1,31,9v2A15,15,0,0,0,16,26Z"/></g></svg>