<svg id="Layer_1" data-name="Layer 1" xmlns="http://www.w3.org/2000/svg" width="22.58mm" height="22.58mm" viewBox="0 0 64 64"><defs><style>.cls-1{fill:#001689;}</style></defs><title>digital-commerce</title><g id="DIGITAL_COMMERCE" data-name="DIGITAL COMMERCE"><rect class="cls-1" x="24" y="54" width="19" height="2"/><rect class="cls-1" x="22" y="50" width="23" height="2"/><path class="cls-1" d="M12,56a10,10,0,0,1,0-20H55a1,1,0,0,1,1,1,5,5,0,0,1-5,5H12a4,4,0,0,0,0,8h2v2H12a6,6,0,0,1,0-12H51a3,3,0,0,0,2.83-2H12a8,8,0,0,0,0,16v2Z"/><path class="cls-1" d="M49,62a7,7,0,1,1,7-7A7,7,0,0,1,49,62Zm0-12a5,5,0,1,0,5,5A5,5,0,0,0,49,50Z"/><path class="cls-1" d="M18,62a7,7,0,1,1,7-7A7,7,0,0,1,18,62Zm0-12a5,5,0,1,0,5,5A5,5,0,0,0,18,50Z"/><path class="cls-1" d="M55,38H12a1,1,0,0,1-1-1V15h2V36H54.3l7.27-20H15V14H63a1,1,0,0,1,.94,1.34l-8,22A1,1,0,0,1,55,38Z"/><path class="cls-1" d="M9,38H7V6A2,2,0,0,0,5,4V2A4,4,0,0,1,9,6V38Z"/><path class="cls-1" d="M13,15H11V6A2,2,0,0,0,9,4V2a4,4,0,0,1,4,4v9Z"/><rect class="cls-1" y="2" width="9" height="2"/><rect class="cls-1" y="60" width="64" height="2"/><path class="cls-1" d="M52,24a3.43,3.43,0,0,1-2.73-1.31,1.52,1.52,0,0,0-2.54,0,3.49,3.49,0,0,1-5.46,0,1.52,1.52,0,0,0-2.55,0,3.49,3.49,0,0,1-5.45,0,1.52,1.52,0,0,0-2.55,0,3.49,3.49,0,0,1-5.45,0,1.52,1.52,0,0,0-2.55,0,3.49,3.49,0,0,1-5.45,0A1.5,1.5,0,0,0,16,22V20a3.44,3.44,0,0,1,2.73,1.31,1.52,1.52,0,0,0,2.55,0,3.49,3.49,0,0,1,5.45,0,1.52,1.52,0,0,0,2.55,0,3.49,3.49,0,0,1,5.45,0,1.52,1.52,0,0,0,2.55,0,3.49,3.49,0,0,1,5.45,0,1.52,1.52,0,0,0,2.54,0,3.49,3.49,0,0,1,5.46,0,1.52,1.52,0,0,0,2.54,0A3.43,3.43,0,0,1,56,20v2a1.5,1.5,0,0,0-1.27.69A3.43,3.43,0,0,1,52,24Z"/><path class="cls-1" d="M52,32a3.43,3.43,0,0,1-2.73-1.31,1.52,1.52,0,0,0-2.54,0,3.49,3.49,0,0,1-5.46,0,1.52,1.52,0,0,0-2.55,0,3.49,3.49,0,0,1-5.45,0,1.52,1.52,0,0,0-2.55,0,3.49,3.49,0,0,1-5.45,0,1.52,1.52,0,0,0-2.55,0,3.49,3.49,0,0,1-5.45,0A1.5,1.5,0,0,0,16,30V28a3.44,3.44,0,0,1,2.73,1.31,1.52,1.52,0,0,0,2.55,0,3.49,3.49,0,0,1,5.45,0,1.52,1.52,0,0,0,2.55,0,3.49,3.49,0,0,1,5.45,0,1.52,1.52,0,0,0,2.55,0,3.49,3.49,0,0,1,5.45,0,1.52,1.52,0,0,0,2.54,0,3.49,3.49,0,0,1,5.46,0A1.5,1.5,0,0,0,52,30v2Z"/><circle class="cls-1" cx="18" cy="55" r="2"/><circle class="cls-1" cx="49" cy="55" r="2"/></g></svg>