<svg id="Layer_1" data-name="Layer 1" xmlns="http://www.w3.org/2000/svg" width="64" height="64" viewBox="0 0 64 64"><defs><style>.cls-1{fill:#001689;}</style></defs><title>agile-consulting</title><path class="cls-1" d="M37.71,31.71l-1.41-1.41L42.59,24H58a1,1,0,0,0,1-1V3a1,1,0,0,0-1-1H26a1,1,0,0,0-1,1v9H23V3a3,3,0,0,1,3-3H58a3,3,0,0,1,3,3V23a3,3,0,0,1-3,3H43.41Z"/><rect class="cls-1" x="37" y="12" width="2" height="2"/><rect class="cls-1" x="41" y="12" width="2" height="2"/><rect class="cls-1" x="45" y="12" width="2" height="2"/><path class="cls-1" d="M3,64H1V57c0-8,4.45-9.7,9.15-11.49a36.67,36.67,0,0,0,5.35-2.38l1,1.74a38.88,38.88,0,0,1-5.63,2.51C6.13,49.18,3,50.37,3,57v7Z"/><path class="cls-1" d="M47,64H45V57c0-6.63-3.13-7.82-7.86-9.62a38.76,38.76,0,0,1-5.63-2.51l1-1.74a36.62,36.62,0,0,0,5.35,2.38C42.56,47.3,47,49,47,57v7Z"/><path class="cls-1" d="M28.2,49.22L24,47.12l-4.2,2.1-5.09-5.09,2.81-4.22L24,41l6.47-1.08,2.81,4.22ZM24,44.88l3.8,1.9,2.91-2.91-1.19-1.78L24,43l-5.53-.92-1.19,1.78,2.91,2.91Z"/><rect class="cls-1" x="28" y="37" width="2" height="4"/><rect class="cls-1" x="18" y="37" width="2" height="4"/><rect class="cls-1" x="23" y="54" width="2" height="2"/><rect class="cls-1" x="23" y="50" width="2" height="2"/><path class="cls-1" d="M24,39a14.3,14.3,0,0,1-5.45-1.1l-0.11-.06c-0.14-.09-3.38-2.33-4.44-9.69V24h2v3.93c0.86,5.92,3.2,8,3.52,8.21a12.12,12.12,0,0,0,9,0c0.31-.25,2.66-2.31,3.52-8.21V24h2v4.14c-1.05,7.36-4.3,9.6-4.44,9.69l-0.11.06A14.29,14.29,0,0,1,24,39Z"/><path class="cls-1" d="M34,24H32c0-5.53-2.47-8-8-8s-8,2.47-8,8H14c0-6.64,3.36-10,10-10S34,17.36,34,24Z"/><polygon class="cls-1" points="29.05 27.1 19.05 23.1 15.45 24.89 14.55 23.11 18.95 20.9 28.95 24.9 32.55 23.11 33.45 24.89 29.05 27.1"/><rect class="cls-1" x="9" y="58" width="2" height="6"/><rect class="cls-1" x="37" y="58" width="2" height="6"/></svg>